<?xml version="1.0" encoding="UTF-8"?>
<svg id="_レイヤー_2" data-name="レイヤー 2" xmlns="http://www.w3.org/2000/svg" viewBox="0 0 142.28 68.57">
  <defs>
    <style>
      .cls-1 {
        fill: #601813;
      }
    </style>
  </defs>
  <g id="_レイヤー_2-2" data-name="レイヤー 2">
    <g>
      <path class="cls-1" d="M16.08,68.16c-.37-.27-.55-.61-.55-1.01s.22-.74.66-1.01c.44-.27.99-.37,1.66-.3,1.61.14,2.79.2,3.53.2,2.02,0,3.63-.32,4.84-.96,1.21-.64,2.02-1.73,2.42-3.28.61-2.42.91-11.6.91-27.53l.1-10.59c.07-2.22.1-5.41.1-9.58,0-3.9-.1-6.96-.3-9.18-.2-1.48-1.14-2.22-2.82-2.22h-4.13c-4.03,0-6.86.12-8.47.35-1.61.24-3.16.86-4.64,1.87-3.83,2.49-5.75,7.06-5.75,13.71,0,.81-.2,1.45-.6,1.92-.4.47-.88.71-1.41.71-.47,0-.86-.22-1.16-.66-.3-.44-.45-1.02-.45-1.76,0-2.49.37-7.53,1.11-15.12C1.38,1.31,2.28.1,3.83.1l29.24-.1,29.24.1c1.54,0,2.45,1.21,2.72,3.63.74,7.6,1.11,12.64,1.11,15.12,0,.74-.15,1.33-.45,1.76-.3.44-.69.66-1.16.66-.54,0-1.01-.23-1.41-.71-.4-.47-.61-1.11-.61-1.92,0-6.66-1.92-11.23-5.75-13.71-1.48-1.01-2.97-1.63-4.49-1.87-1.51-.23-4.22-.35-8.12-.35h-4.13c-1.75,0-2.69.77-2.82,2.32-.4,4.5-.61,14.25-.61,29.24,0,15.93.3,25.11.91,27.53.4,1.55,1.21,2.64,2.42,3.28,1.21.64,2.82.96,4.84.96.74,0,1.92-.07,3.53-.2h.4c.61,0,1.08.14,1.41.4.34.27.5.6.5,1.01,0,.34-.19.64-.55.91-.37.27-.89.4-1.56.4h-30.86c-.67,0-1.19-.13-1.56-.4Z"/>
      <path class="cls-1" d="M70.73,68.16c-.37-.27-.55-.61-.55-1.01s.22-.74.66-1.01c.44-.27.99-.37,1.66-.3,1.61.14,2.79.2,3.53.2,2.02,0,3.63-.32,4.84-.96,1.21-.64,2.02-1.73,2.42-3.28.61-2.42.91-11.6.91-27.53s-.3-25.11-.91-27.53c-.4-1.55-1.21-2.64-2.42-3.28-1.21-.64-2.82-.96-4.84-.96-.74,0-1.92.07-3.53.2h-.4c-.61,0-1.08-.13-1.41-.4-.34-.27-.5-.6-.5-1.01,0-.34.18-.64.55-.91.37-.27.89-.4,1.56-.4h30.86c.67,0,1.19.14,1.56.4.37.27.55.6.55,1.01s-.22.74-.66,1.01c-.44.27-.99.37-1.66.3-1.61-.13-2.79-.2-3.53-.2-2.02,0-3.63.32-4.84.96-1.21.64-2.02,1.73-2.42,3.28-.6,2.62-.91,11.03-.91,25.21,0,.67.13,1.23.4,1.66.27.44.64.66,1.11.66.4,0,.94-.27,1.61-.81l27.63-24.1c1.14-.94,1.71-1.92,1.71-2.92,0-1.07-.69-1.97-2.07-2.67-1.38-.71-3.11-1.06-5.19-1.06-.47,0-1.24.07-2.32.2h-.3c-.47,0-.86-.13-1.16-.4-.3-.27-.45-.6-.45-1.01,0-.34.17-.64.5-.91.34-.27.77-.4,1.31-.4h24c.6,0,1.06.14,1.36.4.3.27.45.6.45,1.01s-.19.74-.55,1.01c-.37.27-.82.37-1.36.3-1.28-.2-2.91.27-4.89,1.41-1.98,1.14-3.82,2.45-5.5,3.93l-20.77,18.55c-.67.6-1.01,1.24-1.01,1.92,0,.54.2,1.08.6,1.61l22.18,30.75c1.07,1.48,2.72,2.69,4.94,3.63,2.22.94,4.37,1.31,6.45,1.11h.4c.61,0,1.08.14,1.41.4.34.27.5.6.5,1.01,0,.34-.19.64-.55.91-.37.27-.89.4-1.56.4h-28.84c-.67,0-1.19-.13-1.56-.4-.37-.27-.55-.61-.55-1.01s.22-.74.66-1.01c.44-.27.99-.37,1.66-.3,1.21.14,2.15.2,2.82.2,1.88,0,3.44-.22,4.69-.66,1.24-.44,1.87-1.09,1.87-1.97,0-.47-.2-1.01-.61-1.61l-19.96-29.14-7.66,6.86c-.94.81-1.41,1.85-1.41,3.12.07,5.71.15,10.07.25,13.06.1,2.99.32,5.03.66,6.1.4,1.55,1.21,2.64,2.42,3.28,1.21.64,2.82.96,4.84.96.74,0,1.92-.07,3.53-.2h.4c.61,0,1.08.14,1.41.4.34.27.5.6.5,1.01,0,.34-.19.64-.55.91-.37.27-.89.4-1.56.4h-30.86c-.67,0-1.19-.13-1.56-.4Z"/>
    </g>
  </g>
</svg>